<svg width="15" height="17" viewBox="0 0 15 17" fill="none" xmlns="http://www.w3.org/2000/svg">
<path fill-rule="evenodd" clip-rule="evenodd" d="M14.5 5.7C14.4883 5.23913 14.2996 4.7996 13.9728 4.47279L10.0272 0.527208C9.70035 0.200355 9.26074 0.012186 8.7998 0.00057168L8.75442 0H2.3C1.30589 0 0.5 0.805887 0.5 1.8V15.2C0.5 16.1941 1.30589 17 2.3 17H12.7C13.6941 17 14.5 16.1941 14.5 15.2V5.7ZM12.5 7.7V15H2.5V2H6.7998V5.7C6.7998 6.80457 7.69523 7.7 8.7998 7.7H12.5ZM8.7998 2.12823L12.3716 5.7L8.7998 5.7V2.12823Z" fill="currentColor"/>
</svg>
