<svg width="17" height="12" viewBox="0 0 17 12" fill="none" xmlns="http://www.w3.org/2000/svg">
<path fill-rule="evenodd" clip-rule="evenodd" d="M0 1C0 0.447715 0.447715 0 1 0H15.1667C15.719 0 16.1667 0.447715 16.1667 1C16.1667 1.55228 15.719 2 15.1667 2H1C0.447715 2 0 1.55228 0 1ZM0 6C0 5.44772 0.447715 5 1 5H15.1667C15.719 5 16.1667 5.44772 16.1667 6C16.1667 6.55228 15.719 7 15.1667 7H1C0.447715 7 0 6.55228 0 6ZM1 10C0.447715 10 0 10.4477 0 11C0 11.5523 0.447715 12 1 12H15.1667C15.719 12 16.1667 11.5523 16.1667 11C16.1667 10.4477 15.719 10 15.1667 10H1Z" fill="#292927"/>
</svg>
