<svg width="21" height="21" viewBox="0 0 21 21" fill="none" xmlns="http://www.w3.org/2000/svg">
<path fill-rule="evenodd" clip-rule="evenodd" d="M3.53425 0.270747C3.13149 -0.107149 2.49865 -0.0869946 2.12075 0.315763C1.74286 0.71852 1.76301 1.35136 2.16577 1.72926L8.60001 7.76632V12.3368L2.16633 6.58767C1.75451 6.21967 1.12234 6.2552 0.754344 6.66702C0.386346 7.07884 0.42187 7.711 0.833689 8.079L8.60001 15.0189V20C8.60001 20.5523 9.04772 21 9.60001 21C10.1523 21 10.6 20.5523 10.6 20V8.33334H19.5C20.0523 8.33334 20.5 7.88562 20.5 7.33334C20.5 6.78105 20.0523 6.33334 19.5 6.33334H9.99569L3.53425 0.270747ZM3.03148 17.1171C3.51723 16.8571 3.70126 16.2529 3.44243 15.7661C3.18388 15.2798 2.58106 15.0944 2.09413 15.3504L2.09397 15.3501C1.6827 15.5683 1.32786 15.8792 1.05753 16.2583C0.787204 16.6373 0.608803 17.0741 0.53645 17.534C0.464096 17.9939 0.499776 18.4643 0.640666 18.9081C0.781555 19.3518 1.02379 19.7567 1.34819 20.0906C1.6726 20.4245 2.07027 20.6784 2.50974 20.8321C2.94922 20.9858 3.41843 21.035 3.88024 20.976C4.34205 20.917 4.78379 20.7513 5.1705 20.4921C5.55649 20.2333 5.87708 19.8885 6.107 19.4847L6.11071 19.4859C6.38266 19.0052 6.21346 18.3951 5.73277 18.1231C5.25372 17.8521 4.6461 18.0192 4.37278 18.4962L4.36856 18.4938C4.29197 18.6286 4.18505 18.7437 4.05628 18.83C3.9275 18.9163 3.7804 18.9715 3.62662 18.9912C3.47284 19.0108 3.31659 18.9944 3.17025 18.9432C3.0239 18.8921 2.89148 18.8075 2.78345 18.6963C2.67542 18.5851 2.59476 18.4503 2.54784 18.3025C2.50093 18.1548 2.48904 17.9981 2.51314 17.845C2.53723 17.6918 2.59664 17.5464 2.68666 17.4202C2.77668 17.2939 2.89484 17.1904 3.03179 17.1177L3.03148 17.1171Z" fill="#292927"/>
</svg>
