<svg width="20" height="20" viewBox="0 0 20 20" fill="none" xmlns="http://www.w3.org/2000/svg">
<path fill-rule="evenodd" clip-rule="evenodd" d="M2 2.91836V14.7799C2 14.7799 1.99986 14.7834 2.00341 14.7908C2.00804 14.8005 2.01971 14.8194 2.04451 14.842C2.0992 14.8918 2.1797 14.9255 2.25437 14.9285C3.25015 14.9681 4.71191 15.23 5.93217 16.2942C6.34841 16.6572 6.39156 17.2889 6.02856 17.7051C5.66557 18.1213 5.03387 18.1645 4.61764 17.8015C3.8779 17.1564 2.93753 16.9573 2.17483 16.9269C1.13433 16.8855 0 16.0658 0 14.7799V2.81934C0 1.88736 0.685258 0.959215 1.78105 0.922888C3.42195 0.868488 6.89927 1.21609 10 4.47856C13.1007 1.21609 16.578 0.868488 18.219 0.922888C19.3147 0.959215 20 1.88736 20 2.81934V14.7797C20 16.0548 18.8758 16.9025 17.8017 16.9188C16.6309 16.9365 14.6353 17.2362 12.6315 18.7857C11.928 19.3298 11.0354 19.3441 10.3561 19.0707C9.66875 18.7941 9 18.13 9 17.1488V6.35802C6.38823 3.27477 3.41281 2.90157 2 2.91836ZM11 6.35802V17.1474C11.0093 17.1594 11.0405 17.1903 11.1028 17.2154C11.1646 17.2402 11.233 17.2498 11.2927 17.244C11.3494 17.2385 11.3855 17.2211 11.408 17.2036C13.8438 15.32 16.2975 14.9414 17.7713 14.919C17.833 14.9181 17.9046 14.8904 17.9561 14.8434C17.9794 14.8222 17.991 14.8037 17.996 14.7933C18 14.7848 18 14.7799 18 14.7799V2.91836C16.5872 2.90157 13.6118 3.27477 11 6.35802Z" fill="#292927"/>
</svg>
