<svg width="22" height="18" viewBox="0 0 22 18" fill="none" xmlns="http://www.w3.org/2000/svg">
<path fill-rule="evenodd" clip-rule="evenodd" d="M15.5807 6.78375L15.38 5.43797C15.1466 3.8733 13.8504 2.75 12.375 2.75C11.5827 2.75 10.8564 3.06549 10.3057 3.60124L9.69455 4.19589L8.84232 4.16659C8.7979 4.16506 8.75324 4.16429 8.70833 4.16429C6.76202 4.16429 5.07656 5.65309 4.79174 7.6895L4.64724 8.72267L3.71724 9.19537C2.71649 9.70403 2 10.7839 2 12.0643C2 13.7731 3.26316 15.0979 4.76792 15.2374L4.90389 15.25H16C16.5523 15.25 17 15.6977 17 16.25C17 16.8023 16.5523 17.25 16 17.25H4.58333V17.2289C2.01369 16.9907 0 14.7694 0 12.0643C0 10.0241 1.14548 8.25903 2.81102 7.41246C3.22609 4.44486 5.70828 2.16429 8.70833 2.16429C8.77618 2.16429 8.84376 2.16545 8.91106 2.16777C9.81435 1.28892 11.0335 0.75 12.375 0.75C14.8974 0.75 16.9871 2.65526 17.3581 5.14295C19.954 5.74511 21.908 8.09013 21.9968 10.9199C21.9989 10.9463 22 10.973 22 11C22 11.5523 21.5523 12 21 12C20.4477 12 20 11.5523 20 11H19.9983C19.9448 9.05102 18.6062 7.48557 16.9062 7.09122L15.5807 6.78375ZM7.56185 11.2917C8.19468 11.2917 8.70768 10.7787 8.70768 10.1458C8.70768 9.51301 8.19468 9 7.56185 9C6.92902 9 6.41602 9.51301 6.41602 10.1458C6.41602 10.7787 6.92902 11.2917 7.56185 11.2917ZM12.3747 10.1458C12.3747 10.7787 11.8617 11.2917 11.2288 11.2917C10.596 11.2917 10.083 10.7787 10.083 10.1458C10.083 9.51301 10.596 9 11.2288 9C11.8617 9 12.3747 9.51301 12.3747 10.1458ZM14.8949 11.2917C15.5277 11.2917 16.0407 10.7787 16.0407 10.1458C16.0407 9.51301 15.5277 9 14.8949 9C14.262 9 13.749 9.51301 13.749 10.1458C13.749 10.7787 14.262 11.2917 14.8949 11.2917Z" fill="#292927"/>
</svg>
