<svg width="19" height="19" viewBox="0 0 19 19" fill="none" xmlns="http://www.w3.org/2000/svg">
<path fill-rule="evenodd" clip-rule="evenodd" d="M17.8431 7.28207C19.0147 6.1105 19.0147 4.211 17.8431 3.03943L15.6824 0.87868C14.5108 -0.292893 12.6113 -0.292893 11.4397 0.87868L10.3791 1.93934C9.98853 2.32986 9.98853 2.96303 10.3791 3.35355L14.6653 7.63978L5.58579 16.7193L2 16.7193V13.1335L7.70711 7.42638C8.09763 7.03586 8.09763 6.40269 7.70711 6.01217C7.31658 5.62164 6.68342 5.62164 6.29289 6.01217L0.585786 11.7193C0.210714 12.0943 0 12.6031 0 13.1335V17.7193C0 18.2716 0.447715 18.7193 1 18.7193H5.58579C6.11622 18.7193 6.62493 18.5086 7 18.1335L16.7071 8.42638C16.7332 8.40033 16.7575 8.3732 16.78 8.34513L17.8431 7.28207ZM16.4289 4.45365L14.2681 2.29289C13.8776 1.90237 13.2445 1.90237 12.8539 2.29289L12.5004 2.64645L16.0753 6.22141L16.4289 5.86786C16.8194 5.47733 16.8194 4.84417 16.4289 4.45365Z" fill="#292927"/>
</svg>
