<svg width="21" height="12" viewBox="0 0 21 12" fill="none" xmlns="http://www.w3.org/2000/svg">
<path fill-rule="evenodd" clip-rule="evenodd" d="M4.68006 4.78028C4.15282 4.61908 3.85568 4.06169 4.01529 3.53434C4.06075 3.38613 4.07046 3.22917 4.04486 3.07626C4.01926 2.92335 3.95842 2.7785 3.86717 2.65317C3.77591 2.52784 3.65674 2.42547 3.51908 2.35416C3.38142 2.28285 3.22905 2.24456 3.07403 2.24232C2.91901 2.24007 2.7656 2.27394 2.62594 2.34123C2.48627 2.40853 2.36418 2.50741 2.26933 2.63004C2.17449 2.75268 2.10948 2.8957 2.07947 3.04781C2.04946 3.19991 2.05525 3.3569 2.0964 3.50638L2.09173 3.50767C2.23571 4.03818 1.92423 4.58601 1.39384 4.7331C0.861646 4.88069 0.310568 4.56891 0.162976 4.03671L0.166489 4.03498C0.0435405 3.58687 0.0263638 3.11632 0.116328 2.66041C0.206461 2.20366 0.401665 1.77414 0.68649 1.40587C0.971315 1.03759 1.33794 0.740659 1.75736 0.538572C2.17678 0.336483 2.63748 0.234785 3.103 0.241525C3.56852 0.248265 4.02608 0.363258 4.43947 0.577403C4.85287 0.791549 5.21075 1.09897 5.48479 1.47534C5.75883 1.8517 5.94152 2.28669 6.01839 2.74586C6.09527 3.20504 6.06421 3.67581 5.92769 4.12091C5.76444 4.64627 5.20672 4.94129 4.68006 4.78028ZM6 11C6 10.4477 6.44772 10 7 10L14 10C14.5523 10 15 10.4477 15 11C15 11.5523 14.5523 12 14 12L7 12C6.44772 12 6 11.5523 6 11ZM18.88 3.53546C18.7203 4.06286 19.0174 4.62037 19.5447 4.78158C20.0729 4.94306 20.6318 4.64573 20.7933 4.11758C20.9287 3.67375 20.9593 3.20454 20.8827 2.74684C20.8058 2.28766 20.6231 1.85268 20.349 1.47631C20.075 1.09995 19.7171 0.792525 19.3037 0.57838C18.8903 0.364234 18.4328 0.249241 17.9673 0.242502C17.5017 0.235762 17.041 0.33746 16.6216 0.539548C16.2022 0.741636 15.8356 1.03857 15.5507 1.40684C15.2659 1.77512 15.0707 2.20463 14.9806 2.66139C14.8906 3.11754 14.9078 3.58836 15.0309 4.03669L15.0274 4.03842C15.175 4.57062 15.7261 4.8824 16.2583 4.73481C16.7889 4.58765 17.1004 4.03939 16.956 3.50865L16.9607 3.50735C16.9195 3.35788 16.9137 3.20088 16.9437 3.04878C16.9737 2.89668 17.0387 2.75365 17.1336 2.63102C17.2284 2.50838 17.3505 2.4095 17.4902 2.34221C17.6299 2.27491 17.7833 2.24105 17.9383 2.24329C18.0933 2.24554 18.2457 2.28383 18.3833 2.35514C18.521 2.42645 18.6402 2.52882 18.7314 2.65415C18.8227 2.77948 18.8835 2.92433 18.9091 3.07724C18.9347 3.23014 18.9244 3.38691 18.8789 3.53513L18.88 3.53546Z" fill="#292927"/>
</svg>
