<svg width="18" height="19" viewBox="0 0 18 19" fill="none" xmlns="http://www.w3.org/2000/svg">
<path fill-rule="evenodd" clip-rule="evenodd" d="M5 5C5.55228 5 6 5.44772 6 6L6 13C6 13.5523 5.55229 14 5 14C4.44772 14 4 13.5523 4 13L4 6C4 5.44772 4.44772 5 5 5Z" fill="#292927"/>
<path fill-rule="evenodd" clip-rule="evenodd" d="M1 8C1.55228 8 2 8.44772 2 9L2 11C2 11.5523 1.55228 12 1 12C0.447715 12 1.55275e-07 11.5523 1.31134e-07 11L4.37112e-08 9C1.95702e-08 8.44772 0.447715 8 1 8Z" fill="#292927"/>
<path fill-rule="evenodd" clip-rule="evenodd" d="M9 0C9.55228 0 10 0.447715 10 1V18C10 18.5523 9.55228 19 9 19C8.44772 19 8 18.5523 8 18V1C8 0.447715 8.44772 0 9 0Z" fill="#292927"/>
<path fill-rule="evenodd" clip-rule="evenodd" d="M13 8C13.5523 8 14 8.44772 14 9L14 11C14 11.5523 13.5523 12 13 12C12.4477 12 12 11.5523 12 11L12 9C12 8.44772 12.4477 8 13 8Z" fill="#292927"/>
<path fill-rule="evenodd" clip-rule="evenodd" d="M17 6C17.5523 6 18 6.44772 18 7L18 13C18 13.5523 17.5523 14 17 14C16.4477 14 16 13.5523 16 13L16 7C16 6.44772 16.4477 6 17 6Z" fill="#292927"/>
</svg>
